<svg xmlns="http://www.w3.org/2000/svg" width="215.975" height="215.934" viewBox="0 0 215.975 215.934">
  <defs>
    <style>
      .cls-1 {
        fill: #77b9f3;
      }

      .cls-2 {
        fill: #8eeded;
      }

      .cls-3 {
        fill: #6b6a67;
      }

      .cls-4 {
        fill: #f7e4b7;
      }
    </style>
  </defs>
  <g id="anak-dokter" transform="translate(0.024 -0.049)">
    <path id="Path_134" data-name="Path 134" class="cls-1" d="M359.951,405A107.98,107.98,0,1,0,198.9,499.076a122.512,122.512,0,0,1,20.235-40.009,50.162,50.162,0,0,1-17.159-37.8,51.337,51.337,0,0,1,.337-5.757l-.325.13s-5.153-58.842.207-64.96,7.745-9.532,7.745-9.532,20.076,7.638,38.4,11.165l18.342,3.55s36.092,3.627,36.039,9.094,1.432,60.185,1.432,60.185l-1.633-1.237a50.1,50.1,0,0,1-14.2,32.441c6.875,13.78,11.029,29.708,13.532,44.464A107.969,107.969,0,0,0,359.951,405Z" transform="translate(-144 -297)"/>
    <path id="Path_135" data-name="Path 135" class="cls-2" d="M290.185,581.486a50.067,50.067,0,0,1-33.134-12.5,122.513,122.513,0,0,0-20.212,39.985,108.1,108.1,0,0,0,102.951,1.74c-2.5-14.756-6.656-30.684-13.532-44.464A50.138,50.138,0,0,1,290.185,581.486Z" transform="translate(-181.919 -406.922)"/>
    <path id="Path_136" data-name="Path 136" class="cls-3" d="M290.742,401.4a50.292,50.292,0,0,1,50.292,50.292c0,.876,0,1.745-.065,2.615l1.633,1.237s-1.461-54.712-1.432-60.185-36.039-9.094-36.039-9.094l-18.342-3.55c-18.342-3.55-38.4-11.165-38.4-11.165a121.25,121.25,0,0,1-7.745,9.532c-5.378,6.124-.2,64.984-.2,64.984l.325-.13A50.292,50.292,0,0,1,290.742,401.4Z" transform="translate(-182.475 -327.421)"/>
    <path id="Path_140" data-name="Path 140" class="cls-3" d="M97.41,83.171,99.534,70l7.1,2.958" transform="translate(-39.785 -28.563)"/>
    <circle id="Ellipse_75" data-name="Ellipse 75" class="cls-4" cx="51.5" cy="51.5" r="51.5" transform="translate(56.362 71.462)"/>
  </g>
</svg>
