<svg xmlns="http://www.w3.org/2000/svg" width="216" height="216" viewBox="0 0 216 216">
  <defs>
    <style>
      .cls-1 {
        fill: #77b9f3;
      }

      .cls-2 {
        fill: #dd587b;
      }

      .cls-3 {
        fill: #f26886;
      }
    </style>
  </defs>
  <g id="Covid" transform="translate(-317 -967)">
    <circle id="Ellipse_15" data-name="Ellipse 15" class="cls-1" cx="108" cy="108" r="108" transform="translate(317 967)"/>
    <g id="covid-obat" transform="translate(380 1004)">
      <path id="Path_82" data-name="Path 82" class="cls-2" d="M173.007,200.82A43.181,43.181,0,0,1,152,284.35a43.181,43.181,0,1,0,21.007-83.53Z" transform="translate(-105.318 -182.287)"/>
      <path id="Path_83" data-name="Path 83" class="cls-3" d="M194.12,241.621a43.19,43.19,0,0,0-29.568-40.988,43.181,43.181,0,0,0-21,83.531,43.158,43.158,0,0,0,50.572-42.543Z" transform="translate(-96.865 -182.101)"/>
      <rect id="Rectangle_95" data-name="Rectangle 95" class="cls-3" width="1.556" height="14.783" transform="translate(44.873 8.993) rotate(-14.28)"/>
      <circle id="Ellipse_57" data-name="Ellipse 57" class="cls-3" cx="4.5" cy="4.5" r="4.5" transform="translate(40)"/>
      <rect id="Rectangle_96" data-name="Rectangle 96" class="cls-3" width="1.556" height="14.783" transform="matrix(-0.632, -0.775, 0.775, -0.632, 21.597, 88.007)"/>
      <circle id="Ellipse_58" data-name="Ellipse 58" class="cls-3" cx="4.668" cy="4.668" r="4.668" transform="translate(13.25 85.638)"/>
      <rect id="Rectangle_97" data-name="Rectangle 97" class="cls-3" width="1.556" height="14.783" transform="translate(98.685 33.987) rotate(53.2)"/>
      <circle id="Ellipse_59" data-name="Ellipse 59" class="cls-3" cx="4.668" cy="4.668" r="4.668" transform="translate(97.799 27.177)"/>
      <rect id="Rectangle_98" data-name="Rectangle 98" class="cls-3" width="1.556" height="14.783" transform="translate(44.032 106.66) rotate(-159.53)"/>
      <circle id="Ellipse_60" data-name="Ellipse 60" class="cls-3" cx="4.668" cy="4.668" r="4.668" transform="translate(37.361 105.836)"/>
      <rect id="Rectangle_99" data-name="Rectangle 99" class="cls-3" width="1.556" height="14.783" transform="translate(79.071 106.149) rotate(168.98)"/>
      <circle id="Ellipse_61" data-name="Ellipse 61" class="cls-3" cx="4.5" cy="4.5" r="4.5" transform="translate(75 106)"/>
      <rect id="Rectangle_100" data-name="Rectangle 100" class="cls-3" width="1.556" height="14.783" transform="matrix(0.98, 0.197, -0.197, 0.98, 74.908, 11.15)"/>
      <circle id="Ellipse_62" data-name="Ellipse 62" class="cls-3" cx="4.668" cy="4.668" r="4.668" transform="translate(71.61 2.365)"/>
      <circle id="Ellipse_63" data-name="Ellipse 63" class="cls-2" cx="8.543" cy="8.543" r="8.543" transform="translate(59.94 36.599)"/>
      <circle id="Ellipse_64" data-name="Ellipse 64" class="cls-2" cx="6.613" cy="6.613" r="6.613" transform="translate(57.606 71.618)"/>
      <circle id="Ellipse_65" data-name="Ellipse 65" class="cls-2" cx="3.486" cy="3.486" r="3.486" transform="translate(33.487 66.164)"/>
      <rect id="Rectangle_101" data-name="Rectangle 101" class="cls-3" width="1.556" height="14.783" transform="translate(8.915 59.786) rotate(-109.2)"/>
      <circle id="Ellipse_66" data-name="Ellipse 66" class="cls-3" cx="4.5" cy="4.5" r="4.5" transform="translate(0 56)"/>
      <rect id="Rectangle_102" data-name="Rectangle 102" class="cls-3" width="1.556" height="14.783" transform="translate(14.937 30.867) rotate(-55.97)"/>
      <ellipse id="Ellipse_67" data-name="Ellipse 67" class="cls-3" cx="4.5" cy="5" rx="4.5" ry="5" transform="translate(7 23)"/>
      <rect id="Rectangle_103" data-name="Rectangle 103" class="cls-3" width="1.556" height="14.783" transform="translate(100.114 83.658) rotate(98.59)"/>
      <circle id="Ellipse_68" data-name="Ellipse 68" class="cls-3" cx="4.668" cy="4.668" r="4.668" transform="translate(99.635 80.192)"/>
      <rect id="Rectangle_104" data-name="Rectangle 104" class="cls-3" width="1.556" height="14.783" transform="translate(106.123 58.324) rotate(89.78)"/>
      <circle id="Ellipse_69" data-name="Ellipse 69" class="cls-3" cx="4.668" cy="4.668" r="4.668" transform="translate(105.774 54.19)"/>
    </g>
    <g id="covid-obat-2" data-name="covid-obat" transform="translate(353 1074.795)">
      <path id="Path_82-2" data-name="Path 82" class="cls-2" d="M157.692,200.82A11.7,11.7,0,0,1,152,223.452a11.7,11.7,0,1,0,5.692-22.632Z" transform="translate(-139.352 -195.799)"/>
      <path id="Path_83-2" data-name="Path 83" class="cls-3" d="M135.65,211.263a11.7,11.7,0,0,0-8.011-11.105,11.7,11.7,0,0,0-5.691,22.632,11.693,11.693,0,0,0,13.7-11.527Z" transform="translate(-109.299 -195.136)"/>
      <rect id="Rectangle_95-2" data-name="Rectangle 95" class="cls-3" width="0.422" height="4.005" transform="translate(12.158 2.437) rotate(-14.28)"/>
      <circle id="Ellipse_57-2" data-name="Ellipse 57" class="cls-3" cx="1" cy="1" r="1" transform="translate(11 0.205)"/>
      <rect id="Rectangle_96-2" data-name="Rectangle 96" class="cls-3" width="0.422" height="4.005" transform="matrix(-0.632, -0.775, 0.775, -0.632, 5.852, 23.845)"/>
      <circle id="Ellipse_58-2" data-name="Ellipse 58" class="cls-3" cx="1.265" cy="1.265" r="1.265" transform="translate(3.59 23.203)"/>
      <rect id="Rectangle_97-2" data-name="Rectangle 97" class="cls-3" width="0.422" height="4.005" transform="translate(26.738 9.208) rotate(53.2)"/>
      <circle id="Ellipse_59-2" data-name="Ellipse 59" class="cls-3" cx="1.265" cy="1.265" r="1.265" transform="translate(26.498 7.363)"/>
      <rect id="Rectangle_98-2" data-name="Rectangle 98" class="cls-3" width="0.422" height="4.005" transform="translate(11.93 28.899) rotate(-159.53)"/>
      <circle id="Ellipse_60-2" data-name="Ellipse 60" class="cls-3" cx="1.265" cy="1.265" r="1.265" transform="translate(10.123 28.676)"/>
      <rect id="Rectangle_99-2" data-name="Rectangle 99" class="cls-3" width="0.422" height="4.005" transform="translate(21.424 28.76) rotate(168.98)"/>
      <circle id="Ellipse_61-2" data-name="Ellipse 61" class="cls-3" cx="1" cy="1" r="1" transform="translate(20 29.205)"/>
      <rect id="Rectangle_100-2" data-name="Rectangle 100" class="cls-3" width="0.422" height="4.005" transform="matrix(0.98, 0.197, -0.197, 0.98, 20.296, 3.021)"/>
      <circle id="Ellipse_62-2" data-name="Ellipse 62" class="cls-3" cx="1.265" cy="1.265" r="1.265" transform="translate(19.402 0.641)"/>
      <circle id="Ellipse_63-2" data-name="Ellipse 63" class="cls-2" cx="2.315" cy="2.315" r="2.315" transform="translate(16.24 9.916)"/>
      <circle id="Ellipse_64-2" data-name="Ellipse 64" class="cls-2" cx="1.792" cy="1.792" r="1.792" transform="translate(15.608 19.405)"/>
      <circle id="Ellipse_65-2" data-name="Ellipse 65" class="cls-2" cx="0.944" cy="0.944" r="0.944" transform="translate(9.073 17.927)"/>
      <rect id="Rectangle_101-2" data-name="Rectangle 101" class="cls-3" width="0.422" height="4.005" transform="translate(2.416 16.199) rotate(-109.2)"/>
      <ellipse id="Ellipse_66-2" data-name="Ellipse 66" class="cls-3" cx="1" cy="1.5" rx="1" ry="1.5" transform="translate(0 15.205)"/>
      <rect id="Rectangle_102-2" data-name="Rectangle 102" class="cls-3" width="0.422" height="4.005" transform="translate(4.047 8.363) rotate(-55.97)"/>
      <ellipse id="Ellipse_67-2" data-name="Ellipse 67" class="cls-3" cx="1" cy="1.5" rx="1" ry="1.5" transform="translate(2 6.205)"/>
      <rect id="Rectangle_103-2" data-name="Rectangle 103" class="cls-3" width="0.422" height="4.005" transform="translate(27.125 22.667) rotate(98.59)"/>
      <circle id="Ellipse_68-2" data-name="Ellipse 68" class="cls-3" cx="1.265" cy="1.265" r="1.265" transform="translate(26.996 21.728)"/>
      <rect id="Rectangle_104-2" data-name="Rectangle 104" class="cls-3" width="0.422" height="4.005" transform="translate(28.754 15.802) rotate(89.78)"/>
      <circle id="Ellipse_69-2" data-name="Ellipse 69" class="cls-3" cx="1.265" cy="1.265" r="1.265" transform="translate(28.659 14.683)"/>
    </g>
  </g>
</svg>
