<svg id="diabetes-obat" xmlns="http://www.w3.org/2000/svg" width="220.023" height="219.921" viewBox="0 0 220.023 219.921">
  <defs>
    <style>
      .cls-1 {
        fill: #77b9f3;
      }

      .cls-2 {
        fill: #f26886;
      }

      .cls-3 {
        fill: #ef84a0;
      }
    </style>
  </defs>
  <path id="Path_88" data-name="Path 88" class="cls-1" d="M186.329,115A109.9,109.9,0,0,0,92.28,167.959a61.241,61.241,0,0,1,14.219-1.747,60.249,60.249,0,0,1,55.188,36.15h48.742a13.556,13.556,0,1,1,0,27.112H166.748v1.2l26.178.874a13.556,13.556,0,0,1,13.1,13.978h0a13.556,13.556,0,0,1-14.008,13.1l-33.83-1.085c-.392.633-.783,1.326-1.205,1.958l24.311,1.807a13.594,13.594,0,0,1-2.018,27.112L123.73,284.3a59.135,59.135,0,0,1-29.04,1.265A109.955,109.955,0,1,0,186.329,115Z" transform="translate(-76.374 -115)"/>
  <path id="Path_89" data-name="Path 89" class="cls-2" d="M120.381,171.112h43.681a13.556,13.556,0,0,0,0-27.112H115.32a59.527,59.527,0,0,1,5.061,24.1C120.381,169.124,120.381,170.118,120.381,171.112Z" transform="translate(-30.007 -56.639)"/>
  <path id="Path_90" data-name="Path 90" class="cls-2" d="M147.839,181.356a13.556,13.556,0,0,0,14.008-13.1h0a13.556,13.556,0,0,0-13.1-13.978l-26.028-.874a59.858,59.858,0,0,1-8.555,26.871Z" transform="translate(-32.342 -37.721)"/>
  <path id="Path_91" data-name="Path 91" class="cls-2" d="M123.6,172.72,92.27,170.4c.723,1.2,1.506,2.41,2.289,3.585a59.134,59.134,0,0,0,29.04-1.265Z" transform="translate(-76.394 -3.51)"/>
  <path id="Path_92" data-name="Path 92" class="cls-2" d="M170.884,168.15A60.249,60.249,0,0,0,115.7,132a61.245,61.245,0,0,0-14.219,1.747A109.562,109.562,0,0,0,87.71,169.294,13.406,13.406,0,0,1,93.1,168.15Z" transform="translate(-85.571 -80.788)"/>
  <path id="Path_93" data-name="Path 93" class="cls-2" d="M142.015,154.2V153H104.57Z" transform="translate(-51.641 -38.526)"/>
  <path id="Path_94" data-name="Path 94" class="cls-2" d="M145.889,165.395c.422-.633.813-1.325,1.2-1.958L97.72,161.81Z" transform="translate(-65.426 -20.797)"/>
  <path id="Path_95" data-name="Path 95" class="cls-2" d="M87,152.25v.542h1.024A8.259,8.259,0,0,1,87,152.25Z" transform="translate(-87 -40.036)"/>
  <path id="Path_96" data-name="Path 96" class="cls-2" d="M139.929,171.112h37.445V168.1a59.527,59.527,0,0,0-5.061-24.1H94.531a13.4,13.4,0,0,0-5.392,1.145A109.259,109.259,0,0,0,87,166.593q0,1.13,0,2.259a8.253,8.253,0,0,0,1.024.572Z" transform="translate(-87 -56.639)"/>
  <path id="Path_97" data-name="Path 97" class="cls-2" d="M119.294,180.576l49.374,1.627a59.858,59.858,0,0,0,8.706-26.871l-37.294-1.2H94.531a13.136,13.136,0,0,1-6.417-1.687H87A111.042,111.042,0,0,0,90.766,178.5Z" transform="translate(-87 -39.653)"/>
  <path id="Path_98" data-name="Path 98" class="cls-2" d="M93.787,154.127h45.4L87.37,152.44A13.136,13.136,0,0,0,93.787,154.127Z" transform="translate(-86.255 -39.653)"/>
  <path id="Path_99" data-name="Path 99" class="cls-2" d="M102.67,187.733l55.55,4.127a13.594,13.594,0,0,0,2.018-27.112l-24.311-1.807a60.249,60.249,0,0,1-33.258,24.793Z" transform="translate(-55.465 -18.523)"/>
  <path id="Path_100" data-name="Path 100" class="cls-2" d="M164.666,166l-48.2-3.585-28.076-.9a109.173,109.173,0,0,0,11.658,26.871l31.33,2.32A60.249,60.249,0,0,0,164.666,166Z" transform="translate(-84.203 -21.4)"/>
  <path id="Path_101" data-name="Path 101" class="cls-2" d="M88.28,161.08l.362,1.2,28.076.9Z" transform="translate(-84.424 -22.266)"/>
  <rect id="Rectangle_105" data-name="Rectangle 105" class="cls-2" width="180" height="26" rx="9" transform="translate(12.484 52.36)"/>
  <path id="Path_102" data-name="Path 102" class="cls-3" d="M151.11,158.16l1.777,3.615a15.06,15.06,0,0,0-1.777-3.615Z" transform="translate(42.019 -28.142)"/>
  <path id="Path_103" data-name="Path 103" class="cls-3" d="M142,161h0a15.062,15.062,0,0,0,29.763,3.223C163.87,164.826,144.681,165.76,142,161Z" transform="translate(23.685 -22.427)"/>
  <path id="Path_104" data-name="Path 104" class="cls-3" d="M157.24,166.062a14.761,14.761,0,0,1,12.231,6.507L158.9,151s-19.641,23.949-16.569,30.125a15.063,15.063,0,0,1,14.912-15.062Z" transform="translate(23.689 -41.551)"/>
  <path id="Path_105" data-name="Path 105" class="cls-3" d="M171.763,174.271a15.992,15.992,0,0,0,.361-3.223,14.821,14.821,0,0,0-.9-4.94l-1.777-3.615A15.062,15.062,0,0,0,142,171.048C144.681,175.808,163.87,174.874,171.763,174.271Z" transform="translate(23.685 -32.475)"/>
</svg>
