<svg xmlns="http://www.w3.org/2000/svg" width="36.008" height="36" viewBox="0 0 36.008 36">
  <path id="Icon_awesome-instagram" data-name="Icon awesome-instagram" d="M18,11.008a9.23,9.23,0,1,0,9.23,9.23A9.215,9.215,0,0,0,18,11.008Zm0,15.231a6,6,0,1,1,6-6A6.012,6.012,0,0,1,18,26.238ZM29.763,10.63A2.153,2.153,0,1,1,27.61,8.477,2.148,2.148,0,0,1,29.763,10.63Zm6.113,2.185c-.137-2.884-.8-5.438-2.908-7.543s-4.659-2.763-7.543-2.908c-2.972-.169-11.881-.169-14.853,0-2.876.137-5.43.8-7.543,2.9S.266,9.923.121,12.807c-.169,2.972-.169,11.881,0,14.853.137,2.884.8,5.438,2.908,7.543s4.659,2.763,7.543,2.908c2.972.169,11.881.169,14.853,0,2.884-.137,5.438-.8,7.543-2.908s2.763-4.659,2.908-7.543c.169-2.972.169-11.873,0-14.845Zm-3.84,18.034a6.075,6.075,0,0,1-3.422,3.422c-2.37.94-7.993.723-10.612.723s-8.25.209-10.612-.723a6.075,6.075,0,0,1-3.422-3.422c-.94-2.37-.723-7.993-.723-10.612s-.209-8.25.723-10.612A6.075,6.075,0,0,1,7.391,6.2c2.37-.94,7.993-.723,10.612-.723s8.25-.209,10.612.723a6.075,6.075,0,0,1,3.422,3.422c.94,2.37.723,7.993.723,10.612S32.976,28.488,32.037,30.849Z" transform="translate(0.005 -2.238)" fill="#636363"/>
</svg>
