<svg xmlns="http://www.w3.org/2000/svg" width="217.589" height="217.581" viewBox="0 0 217.589 217.581">
  <defs>
    <style>
      .cls-1 {
        fill: #77b9f3;
      }

      .cls-2 {
        fill: #ffeed7;
      }

      .cls-3 {
        fill: #65efd5;
      }

      .cls-4, .cls-5 {
        fill: #838484;
      }

      .cls-5 {
        stroke: #838484;
        stroke-width: 0.7px;
      }
    </style>
  </defs>
  <g id="kehamilan-obat" transform="translate(0 0.013)">
    <path id="Path_146" data-name="Path 146" class="cls-1" d="M586.589,409.833a108.794,108.794,0,1,0-194.057,67.533c7.817-11.564,17.689-21.195,29.7-24.177,36.587-9.187,33.283-58.145,53.229-61.207s9.993-18.414,9.993-18.414h4.432a4.03,4.03,0,0,0-4.029-4.029V361.48h-4.029l12.088-16.118a33.773,33.773,0,0,0-8.059,0h-4.029a58,58,0,0,1,8.059-12.088c4.03-4.029,16.118,0,24.177,0s12.088,24.177,8.059,24.177,0,16.118,0,16.118l4.029,4.029c4.03,4.029,0,20.147-4.029,24.177s4.029,12.088,4.029,12.088l-4.029,8.059-8.059-24.176V373.568a2.7,2.7,0,0,0-2.015.967v5.158L503.18,515.605A108.8,108.8,0,0,0,586.589,409.833Z" transform="translate(-369 -301)"/>
    <path id="Path_147" data-name="Path 147" class="cls-2" d="M427.221,341.173a2.7,2.7,0,0,1,2.015-.967v-4.029c0-18.334-11.887-23.008-20.147-24.177L397,328.118h4.029v8.059a4.029,4.029,0,0,1,4.029,4.029h22.162Z" transform="translate(-284.176 -267.638)"/>
    <path id="Path_148" data-name="Path 148" class="cls-3" d="M494.353,319.967a13.094,13.094,0,0,0-2.014,7.092H472.191V319h-4.432s9.953,15.312-9.993,18.374-16.641,52.02-53.229,61.207c-12.088,3.022-21.88,12.652-29.7,24.176A108.8,108.8,0,0,0,485.488,461l8.865-135.913Z" transform="translate(-351.308 -246.432)"/>
    <path id="Path_149" data-name="Path 149" class="cls-3" d="M399,327.059h20.147a13.1,13.1,0,0,1,2.015-7.092V319H399Z" transform="translate(-278.117 -246.432)"/>
    <path id="Path_150" data-name="Path 150" class="cls-4" d="M429.235,322.435s4.029,28.206,0,28.206v24.177l8.059,24.176,4.029-8.059s-8.059-8.059-4.029-12.088,8.059-20.147,4.029-24.177l-4.029-4.029s-4.029-16.118,0-16.118,0-24.176-8.059-24.176-20.147-4.029-24.177,0A58,58,0,0,0,397,322.435h4.029a33.775,33.775,0,0,1,8.059,0h20.147Z" transform="translate(-284.176 -278.073)"/>
    <path id="Path_151" data-name="Path 151" class="cls-5" d="M420.147,336.177v4.029c4.029,0,0-28.206,0-28.206H400C408.26,313.168,420.147,317.843,420.147,336.177Z" transform="translate(-275.088 -267.638)"/>
    <path id="Path_152" data-name="Path 152" class="cls-3" d="M402.29,354.36" transform="translate(-268.15 -139.312)"/>
  </g>
</svg>
