<svg xmlns="http://www.w3.org/2000/svg" width="216" height="216" viewBox="0 0 216 216">
  <defs>
    <style>
      .cls-1 {
        fill: #77b9f3;
      }

      .cls-2 {
        fill: #f4d2b8;
      }

      .cls-3 {
        fill: #fefefe;
      }
    </style>
  </defs>
  <g id="kejiwaan" transform="translate(-1034 -2022)">
    <circle id="Ellipse_17" data-name="Ellipse 17" class="cls-1" cx="108" cy="108" r="108" transform="translate(1034 2022)"/>
    <path id="Path_141" data-name="Path 141" class="cls-2" d="M137.349,353.115l5.674-5.674,28.372,5.674,34.046,11.349c15.207,5.05,23.605,36.089,28.372,68.943a109.911,109.911,0,0,0,25.024-21.335l-8-7.887c-17.023-17.023-5.674-45.395-5.674-45.395s5.674-34.046,5.674-39.72S262.184,268,194.092,268s-51.069,62.418-51.069,62.418L126,353.115l11.349,5.674v17.023l5.674,5.674v11.349c0,5.674,22.7,5.674,22.7,5.674h11.349c11.349,0,11.349,34.046,11.349,34.046v16.4a106.905,106.905,0,0,0,38.982-11.86C219,363.385,137.349,353.115,137.349,353.115Z" transform="translate(964.007 1788.499)"/>
    <path id="Path_142" data-name="Path 142" class="cls-2" d="M12851.107,6359.841l8.033-4.775-15.667-97.69-83.728,11.649v8.373l53.877,23.662Z" transform="translate(-11660 -4134)"/>
    <path id="Icon_material-settings" data-name="Icon material-settings" class="cls-3" d="M32.735,21.767a13.32,13.32,0,0,0,.12-1.675,13.32,13.32,0,0,0-.12-1.675l3.606-2.82a.862.862,0,0,0,.205-1.094L33.128,8.589a.859.859,0,0,0-1.043-.376L27.829,9.922a12.487,12.487,0,0,0-2.889-1.675l-.649-4.529A.833.833,0,0,0,23.454,3H16.617a.833.833,0,0,0-.838.718L15.13,8.247a13.131,13.131,0,0,0-2.889,1.675L7.985,8.213a.834.834,0,0,0-1.043.376L3.525,14.5A.843.843,0,0,0,3.73,15.6l3.606,2.82a13.555,13.555,0,0,0-.12,1.675,13.555,13.555,0,0,0,.12,1.675L3.73,24.587a.862.862,0,0,0-.205,1.094l3.418,5.914a.859.859,0,0,0,1.043.376l4.256-1.709a12.488,12.488,0,0,0,2.889,1.675l.649,4.529a.833.833,0,0,0,.838.718h6.837a.833.833,0,0,0,.838-.718l.649-4.529a13.132,13.132,0,0,0,2.889-1.675l4.256,1.709a.834.834,0,0,0,1.043-.376l3.418-5.914a.862.862,0,0,0-.205-1.094l-3.606-2.82Zm-12.7,4.307a5.982,5.982,0,1,1,5.982-5.982A5.989,5.989,0,0,1,20.035,26.074Z" transform="translate(1134.594 2074)"/>
    <path id="Icon_material-settings-2" data-name="Icon material-settings" class="cls-3" d="M18.981,11.28a7.446,7.446,0,0,0,.077-1.007,7.446,7.446,0,0,0-.077-1.007l2.334-1.7a.494.494,0,0,0,.133-.658L19.235,3.359a.577.577,0,0,0-.675-.226L15.806,4.161a8.251,8.251,0,0,0-1.869-1.007L13.516.431A.528.528,0,0,0,12.974,0H8.55a.528.528,0,0,0-.542.431l-.42,2.723A8.677,8.677,0,0,0,5.718,4.161L2.964,3.133a.559.559,0,0,0-.675.226L.077,6.914a.483.483,0,0,0,.133.658l2.334,1.7a7.578,7.578,0,0,0-.077,1.007,7.578,7.578,0,0,0,.077,1.007l-2.334,1.7a.494.494,0,0,0-.133.658l2.212,3.555a.577.577,0,0,0,.675.226l2.754-1.027a8.251,8.251,0,0,0,1.869,1.007l.42,2.723a.528.528,0,0,0,.542.431h4.425a.528.528,0,0,0,.542-.431l.42-2.723a8.677,8.677,0,0,0,1.869-1.007l2.754,1.027a.559.559,0,0,0,.675-.226l2.212-3.555a.494.494,0,0,0-.133-.658l-2.334-1.7Zm-8.219,2.589a3.745,3.745,0,0,1-3.872-3.6,3.745,3.745,0,0,1,3.872-3.6,3.745,3.745,0,0,1,3.872,3.6A3.745,3.745,0,0,1,10.762,13.869Z" transform="matrix(0.966, -0.259, 0.259, 0.966, 1170.563, 2089.079)"/>
    <path id="Icon_material-settings-3" data-name="Icon material-settings" class="cls-3" d="M15.324,9.107a6.012,6.012,0,0,0,.063-.813,6.012,6.012,0,0,0-.063-.813l1.884-1.369a.4.4,0,0,0,.107-.531l-1.786-2.87a.466.466,0,0,0-.545-.182l-2.224.829a6.661,6.661,0,0,0-1.509-.813l-.339-2.2A.427.427,0,0,0,10.475,0H6.9a.427.427,0,0,0-.438.348l-.339,2.2a7.005,7.005,0,0,0-1.509.813L2.393,2.53a.452.452,0,0,0-.545.182L.062,5.582a.39.39,0,0,0,.107.531L2.053,7.481a6.118,6.118,0,0,0-.063.813,6.118,6.118,0,0,0,.063.813L.169,10.476a.4.4,0,0,0-.107.531l1.786,2.87a.466.466,0,0,0,.545.182l2.224-.829a6.661,6.661,0,0,0,1.509.813l.339,2.2a.427.427,0,0,0,.438.348h3.572a.427.427,0,0,0,.438-.348l.339-2.2a7,7,0,0,0,1.509-.813l2.224.829a.452.452,0,0,0,.545-.182l1.786-2.87a.4.4,0,0,0-.107-.531L15.324,9.107ZM8.689,11.2a3.024,3.024,0,0,1-3.126-2.9,3.024,3.024,0,0,1,3.126-2.9,3.024,3.024,0,0,1,3.126,2.9A3.024,3.024,0,0,1,8.689,11.2Z" transform="matrix(0.966, -0.259, 0.259, 0.966, 1162.034, 2109.655)"/>
  </g>
</svg>
