<svg xmlns="http://www.w3.org/2000/svg" width="30.121" height="25.421" viewBox="0 0 30.121 25.421">
  <defs>
    <style>
      .cls-1 {
        fill: #fff;
      }
    </style>
  </defs>
  <path id="Icon_awesome-pills" data-name="Icon awesome-pills" class="cls-1" d="M5.857,2.25A6.118,6.118,0,0,0,0,8.605V21.316a6.118,6.118,0,0,0,5.857,6.355,6.118,6.118,0,0,0,5.857-6.355V8.605A6.118,6.118,0,0,0,5.857,2.25Zm2.51,12.711H3.347V8.605a2.624,2.624,0,0,1,2.51-2.724,2.624,2.624,0,0,1,2.51,2.724Zm7.306-1.685a.408.408,0,0,0-.643.045,9.629,9.629,0,0,0,.831,11.712,7.857,7.857,0,0,0,10.794.9.488.488,0,0,0,.042-.7ZM27.69,12.2a7.857,7.857,0,0,0-10.794-.9.488.488,0,0,0-.042.7L27.878,23.955a.408.408,0,0,0,.643-.045A9.621,9.621,0,0,0,27.69,12.2Z" transform="translate(0 -2.25)"/>
</svg>
