<svg xmlns="http://www.w3.org/2000/svg" width="216.535" height="216.328" viewBox="0 0 216.535 216.328">
  <defs>
    <style>
      .cls-1 {
        fill: #77b9f3;
      }

      .cls-2 {
        fill: #f36886;
      }

      .cls-3 {
        fill: #fff;
      }
    </style>
  </defs>
  <g id="pencernaan-obat" transform="translate(-0.009)">
    <path id="Path_130" data-name="Path 130" class="cls-1" d="M188.548,444.229c.52-60.1,62.222-89.564,62.222-89.564l6.295-31.269c-2.956-.246-5.939-.4-8.963-.4a108.106,108.106,0,0,0-69.174,191.17l9.086-9.839Z" transform="translate(-140 -323)"/>
    <path id="Path_131" data-name="Path 131" class="cls-1" d="M266.1,327.1c-1.054,18.392,19.678,41.71,32.131,69.174,12.986,28.641-15.737,80.436-28.846,102.331s-71.268,15.833-71.268,15.833L184.43,526.754A108.106,108.106,0,1,0,266.1,327.1Z" transform="translate(-123.634 -321.489)"/>
    <path id="Path_132" data-name="Path 132" class="cls-2" d="M275.251,500.009c13.11-21.895,41.833-73.69,28.846-102.331-12.453-27.464-33.184-50.782-32.131-69.174a107.629,107.629,0,0,0-25.4-5.214l-6.226,31.269s-61.7,29.462-62.223,89.564l-.534,60.1-9.086,9.839A108.235,108.235,0,0,0,190.395,528.2l13.684-12.316S262.142,521.9,275.251,500.009Zm-54.819-8.334c1.478-2.956,20.7-7.389,23.66-7.389s7.39-11.837,8.881-17.79S285.5,448.789,285.5,448.789s-16.271,31.05-23.66,44.364-47.32,10.373-47.32,10.373Z" transform="translate(-129.503 -322.893)"/>
    <path id="Path_133" data-name="Path 133" class="cls-3" d="M249,459.676c8.128-14.3,26-47.676,26-47.676s-34.129,12.713-35.757,19.076-6.486,19.062-9.743,19.062-24.372,4.776-26,7.951L197,470.842S240.872,473.976,249,459.676Z" transform="translate(-117.003 -289.21)"/>
  </g>
</svg>
