<svg width="69" height="69" xmlns="http://www.w3.org/2000/svg">
 <!-- Created with Method Draw - http://github.com/duopixel/Method-Draw/ -->

 <g>
  <title>background</title>
  <rect fill="none" id="canvas_background" height="71" width="71" y="-1" x="-1"/>
  <g display="none" overflow="visible" y="0" x="0" height="100%" width="100%" id="canvasGrid">
   <rect fill="url(#gridpattern)" stroke-width="0" y="0" x="0" height="100%" width="100%"/>
  </g>
 </g>
 <g>
  <title>Layer 1</title>
  <defs>
   <style>.cls-1 {
        fill: #77b9f3;
      }

      .cls-2, .cls-3 {
        fill: none;
      }

      .cls-3 {
        stroke: #fff;
        stroke-miterlimit: 10;
      }

      .cls-4 {
        fill: #ef5072;
      }</style>
  </defs>
  <defs>
   <style>.cls-1 {
        fill: #77b9f3;
      }

      .cls-2, .cls-4 {
        fill: none;
      }

      .cls-3 {
        fill: #ef6c6c;
      }

      .cls-3, .cls-4 {
        stroke: #fff;
        stroke-miterlimit: 10;
      }

      .cls-4 {
        stroke-linecap: round;
        stroke-width: 1.5px;
      }</style>
  </defs>
  <g stroke="null" id="svg_64">
   <g stroke="null" transform="matrix(0.3172663147053703,0,0,0.3172663147053703,-93.13233855487208,-99.87440146968) " id="svg_49">
    <circle stroke="null" r="108" cy="423.82737" cx="402.8074" class="cls-1" id="svg_62"/>
    <g stroke="null" id="svg_50">
     <rect stroke="null" x="356.6394" y="318.41233" height="222.535" width="222.535" class="cls-2" id="svg_61"/>
     <path stroke="null" d="m353.02439,410.59334a2.512,2.512 0 0 0 0,-3.615a12.237,12.237 0 0 1 5.422,-18.075s3.615,-16.267 16.267,-10.845c0,0 13.556,-6.326 18.978,0.9c0,0 12.652,-5.422 16.267,0a14.46,14.46 0 0 1 19.882,0s18.075,-9.037 19.882,9.037c0,0 1.807,7.23 0,9.037c0,0 0,5.422 3.615,7.23a3.958,3.958 0 0 1 1.809,5.431a24.185,24.185 0 0 0 -1.807,9.037s0,14.46 -3.615,16.267l0,0l-3.615,5.422s-1.807,10.845 -5.422,14.46l-3.615,3.615s-3.615,3.615 -5.422,1.807c0,0 -9.037,9.037 -10.845,9.037s-10.845,-1.807 -10.845,-1.807s-1.807,16.267 -5.422,18.075l-3.615,0s-10.845,-27.112 -7.23,-28.919c0,0 5.422,-10.845 12.652,-9.037a58.275,58.275 0 0 1 10.845,3.615s3.615,-10.845 9.037,-9.037c0,0 -1.807,-12.652 7.23,-16.267c0,0 -1.807,-14.46 3.615,-16.267c0,0 -9.037,-7.23 -7.23,-14.46c0,0 -10.845,3.615 -12.652,1.807c0,0 -7.23,0 -9.037,-1.807c0,0 -9.037,3.615 -10.845,1.807c0,0 -9.037,0 -9.037,-1.807a17.46,17.46 0 0 1 -14.46,0s-1.807,7.23 -5.422,9.037c0,0 3.615,9.037 1.807,10.845c0,0 0,7.23 -1.807,7.23c0,0 10.845,1.807 9.037,14.46s-1.807,12.652 -1.807,14.46l0,7.23l0,0s-1.807,7.23 -7.23,0c0,0 1.807,-7.23 0,-10.845l0,0s-14.46,0 -12.652,-16.267l1.807,-1.807l-5.422,-5.422s-3.615,-3.615 -1.807,-7.23a53.743,53.743 0 0 0 2.711,-6.326l-0.002,-0.006z" class="cls-3" id="svg_60"/>
     <path stroke="null" d="m375.54541,426.85934s1.807,-2.783 3.615,-2.783s7.23,14.46 12.652,16.267s7.23,0 7.23,0" class="cls-4" id="svg_59"/>
     <path stroke="null" d="m376.21439,445.26033s11.911,6.941 20.117,7.374" class="cls-4" id="svg_58"/>
     <path stroke="null" d="m410.95441,448.92934s8.043,-8.513 -11.839,-17.55" class="cls-4" id="svg_57"/>
     <path stroke="null" d="m429.8034,428.37834s-1.807,-9.652 -5.422,-11.459l0,-1.808l9.742,-8.26" class="cls-4" id="svg_56"/>
     <path stroke="null" d="m411.29739,440.37933s14.93,-9.037 11.315,-14.46s-7.23,-9.037 -9.037,-9.037c0,0 -5.422,-3.615 -1.807,-5.422s10.248,-1.482 10.556,-14.3" class="cls-4" id="svg_55"/>
     <path stroke="null" d="m383.10041,429.69835s5.169,-12.779 12.4,-9.164l14.46,7.23" class="cls-4" id="svg_54"/>
     <path stroke="null" d="m395.50041,420.53733s-5.422,-10.845 1.807,-12.652l7.23,-1.807s11.965,-7.23 12.309,-9.037" class="cls-4" id="svg_53"/>
     <path stroke="null" d="m370.1774,416.01234s10.845,6.4 14.46,-0.831c0,0 0,-10.845 3.615,-12.652a16.267,16.267 0 0 0 5.838,-5.549" class="cls-4" id="svg_52"/>
     <path stroke="null" d="m373.39438,396.65732s4.031,2.187 4.031,13.032" class="cls-4" id="svg_51"/>
    </g>
   </g>
  </g>
 </g>
</svg>