<svg xmlns="http://www.w3.org/2000/svg" width="30.899" height="30.899" viewBox="0 0 30.899 30.899">
  <defs>
    <style>
      .cls-1 {
        fill: #d7547b;
      }
    </style>
  </defs>
  <path id="Icon_awesome-thumbs-up" data-name="Icon awesome-thumbs-up" class="cls-1" d="M6.276,13.518H1.448A1.448,1.448,0,0,0,0,14.967V29.451A1.448,1.448,0,0,0,1.448,30.9H6.276a1.448,1.448,0,0,0,1.448-1.448V14.967A1.448,1.448,0,0,0,6.276,13.518ZM3.862,28.485a1.448,1.448,0,1,1,1.448-1.448A1.448,1.448,0,0,1,3.862,28.485ZM23.175,4.916c0,2.56-1.567,4-2.008,5.706h6.139A3.606,3.606,0,0,1,30.9,14.128,4.37,4.37,0,0,1,29.726,17.1l-.007.007a5.041,5.041,0,0,1-.562,4.8,4.772,4.772,0,0,1-.989,4.512A3.2,3.2,0,0,1,27.8,29.1c-1.232,1.77-4.285,1.795-6.866,1.795H20.76a17.325,17.325,0,0,1-7.215-1.915,9.5,9.5,0,0,0-3.178-.976.724.724,0,0,1-.711-.724v-12.9a.723.723,0,0,1,.215-.514c2.391-2.362,3.419-4.863,5.378-6.826a7.309,7.309,0,0,0,1.532-3.555C17.05,2.371,17.611,0,18.829,0,20.278,0,23.175.483,23.175,4.916Z"/>
</svg>
