<svg xmlns="http://www.w3.org/2000/svg" width="216.433" height="216.431" viewBox="0 0 216.433 216.431">
  <defs>
    <style>
      .cls-1 {
        fill: #77b9f3;
      }

      .cls-2 {
        fill: #f4d2b8;
      }

      .cls-3, .cls-5 {
        fill: #ed3a71;
      }

      .cls-4, .cls-7 {
        fill: none;
      }

      .cls-4, .cls-5 {
        stroke: #ed3a71;
      }

      .cls-4 {
        stroke-width: 8px;
      }

      .cls-6 {
        stroke: none;
      }
    </style>
  </defs>
  <g id="tht" transform="translate(0)">
    <path id="Path_84" data-name="Path 84" class="cls-1" d="M223.826,427.215h11.349s22.7,0,22.7-5.674V410.192l5.674-5.674V387.495l11.349-5.674-17.023-22.7s17.023-62.418-51.069-62.418-56.743,45.394-56.743,51.069,5.674,39.72,5.674,39.72,11.349,28.372-5.674,45.395l-7.887,7.888a108.209,108.209,0,1,1,70.3,36.883v-16.4S212.477,427.215,223.826,427.215Z" transform="translate(-115.881 -261.859)"/>
    <path id="Path_85" data-name="Path 85" class="cls-2" d="M247.487,353.115l-5.674-5.674-28.372,5.674L179.4,364.464c-15.207,5.05-23.605,36.089-28.372,68.943A109.91,109.91,0,0,1,126,412.071l8-7.887c17.023-17.023,5.674-45.395,5.674-45.395S134,324.743,134,319.069,122.652,268,190.744,268s51.069,62.418,51.069,62.418l17.023,22.7-11.349,5.674v17.023l-5.674,5.674v11.349c0,5.674-22.7,5.674-22.7,5.674H207.767c-11.349,0-11.349,34.046-11.349,34.046v16.4a106.905,106.905,0,0,1-38.982-11.86C165.834,363.385,247.487,353.115,247.487,353.115Z" transform="translate(-99.822 -233.153)"/>
    <path id="Path_87" data-name="Path 87" class="cls-3" d="M156.258,299.023,190.3,287.674,218.676,282l5.674,5.674S142.7,297.945,134.3,371.654c-2.156-1.135-4.2-2.44-6.3-3.688C132.653,335.112,141.051,304.073,156.258,299.023Z" transform="translate(-76.685 -167.713)"/>
    <path id="Path_109" data-name="Path 109" class="cls-4" d="M12444.227,1092.2s-34.891-27.987-33.207-33.952-15.641-16.976-16.6-2.753,9.143,12.617,9.143,12.617" transform="translate(-12334.588 -966.652)"/>
    <g id="Ellipse_71" data-name="Ellipse 71" class="cls-5" transform="translate(59.412 82.348)">
      <ellipse class="cls-6" cx="10" cy="11.5" rx="10" ry="11.5"/>
      <ellipse class="cls-7" cx="10" cy="11.5" rx="9.5" ry="11"/>
    </g>
  </g>
</svg>
