<svg xmlns="http://www.w3.org/2000/svg" width="216" height="216" viewBox="0 0 216 216">
  <defs>
    <style>
      .cls-1 {
        fill: #77b9f3;
      }

      .cls-2 {
        fill: #ede5ce;
      }

      .cls-3 {
        fill: #fff;
      }

      .cls-3, .cls-4 {
        stroke: #fff;
        stroke-linecap: round;
        stroke-miterlimit: 10;
      }

      .cls-4 {
        fill: none;
      }
    </style>
  </defs>
  <g id="tulang-dokter" transform="translate(-320 -2022)">
    <circle id="Ellipse_15" data-name="Ellipse 15" class="cls-1" cx="108" cy="108" r="108" transform="translate(320 2022)"/>
    <g id="tulang-dokter-2" data-name="tulang-dokter" transform="translate(364.677 2073.315)">
      <path id="Path_143" data-name="Path 143" class="cls-2" d="M532.728,322.75a12.456,12.456,0,0,0-4.828.966v-.966a12.755,12.755,0,1,0-18.831,11.206l-60.053,55.285a13.419,13.419,0,1,0-6.579,19.012c0,.342,0,.684,0,1.006a13.419,13.419,0,1,0,21.587-10.6l59.288-54.581a12.735,12.735,0,1,0,9.4-21.325Z" transform="translate(-424 -310)"/>
      <line id="Line_16" data-name="Line 16" class="cls-3" y1="30.177" x2="32.189" transform="translate(48.373 46.287)"/>
      <path id="Path_144" data-name="Path 144" class="cls-4" d="M466.5,313.4s8.047-6.035,14.083,4.024" transform="translate(-380.908 -308.358)"/>
      <path id="Path_145" data-name="Path 145" class="cls-4" d="M426.5,351.641s8.047-8.047,14.083-2.012" transform="translate(-421.381 -272.158)"/>
    </g>
  </g>
</svg>
