<svg width="135" height="135" xmlns="http://www.w3.org/2000/svg">
 <!-- Created with Method Draw - http://github.com/duopixel/Method-Draw/ -->

 <g>
  <title>background</title>
  <rect fill="none" id="canvas_background" height="137" width="137" y="-1" x="-1"/>
  <g display="none" overflow="visible" y="0" x="0" height="100%" width="100%" id="canvasGrid">
   <rect fill="url(#gridpattern)" stroke-width="0" y="1" x="1" height="600" width="800"/>
  </g>
 </g>
 <g>
  <title>Layer 1</title>
  <defs>
   <style>.cls-1 {
        fill: #eaeaea;
      }

      .cls-2 {
        fill: #77b9f3;
      }

      .cls-3 {
        fill: #f4e3ab;
      }

      .cls-4 {
        fill: #fff;
      }

      .cls-5 {
        fill: #f24141;
      }</style>
  </defs>
  <g stroke="null" id="svg_52">
   <g stroke="null" transform="matrix(0.6134765135357156,0,0,0.6140046025393531,-0.6887570986164064,-0.8057929601145588) " id="svg_27">
    <path stroke="null" d="m208.40576,163.5818" class="cls-1" id="svg_50"/>
    <path stroke="null" d="m49.70576,201.9018a109.522,109.522 0 0 0 169.92,-103.89c-28.94,25.68 -76.29,68.06 -88.22,71.57c-7.88,2.32 -44.6,17.12 -81.7,32.32z" class="cls-2" id="svg_49"/>
    <path stroke="null" d="m100.40576,100.5818c19,-21 16,-19 19,-21c2,-1.31 37.85,-31.39 62.36,-52a109.52,109.52 0 0 0 -173.93,120.5c38.57,-16.23 82.42,-36.28 92.57,-47.5z" class="cls-2" id="svg_48"/>
    <path stroke="null" d="m121.11576,103.9618l1.37,-1.46c0.6,-0.63 -1,0.82 -2.13,1.81c0.44,0.18 0.88,0.36 1.32,0.58l-0.56,-0.93z" class="cls-3" id="svg_47"/>
    <path stroke="null" d="m107.40576,149.5818l4,2l-0.05,-0.21l-0.42,-0.07l-2.77,-12.64l-82.68,26.41l-8.24,2.77a110.073,110.073 0 0 0 12.45,16.74c35.8,-17.36 75.53,-36.09 77.71,-35z" class="cls-3" id="svg_46"/>
    <path stroke="null" d="m102.80576,113.8918l0.9,-0.35c0.68,-4.14 2.53,-7.41 5.55,-9.16s7,-1.7 11,-0.09l4.24,-4c11,-10.27 35.92,-4.74 61.06,-36l14,-17.43a109.8,109.8 0 0 0 -17.79,-19.28c-24.51,20.61 -60.36,50.69 -62.36,52c-3,2 0,0 -19,21c-10.15,11.22 -54,31.27 -92.57,47.53q1.37,3.81 3,7.49l91.97,-41.71z" class="cls-3" id="svg_45"/>
    <path stroke="null" d="m188.40576,105.2518c1.74,9.85 -1.67,13.5 -1.67,13.5l-9.56,10.23c0.09,2.82 -28.25,22.87 -32.23,9.56c-2.81,-9.37 -3.3,-12.51 -5.35,-14.46c6.48,13 6.07,26.32 -1.29,30.57a11.51,11.51 0 0 1 -8.92,0.8l-35.98,11.13l-55.54,26.08a110.307,110.307 0 0 0 11.84,9.24c37.1,-15.2 73.82,-30 81.7,-32.32c11.93,-3.51 59.28,-45.89 88.22,-71.57a109,109 0 0 0 -8.68,-31.52c-10.71,14.28 -23.6,32.94 -22.54,38.76z" class="cls-3" id="svg_44"/>
    <path stroke="null" d="m124.53576,100.3118l-4.24,4l0.06,0c1.11,-1 2.73,-2.44 2.13,-1.81l-1.37,1.46l0.56,0.93c5.83,2.78 11.88,8.58 16.38,16.38c0.54,0.93 1,1.87 1.51,2.81c2,1.95 2.54,5.09 5.35,14.46c4,13.31 32.32,-6.74 32.23,-9.56l9.56,-10.23s3.41,-3.65 1.67,-13.5c-1,-5.82 11.86,-24.48 22.57,-38.76a109.623,109.623 0 0 0 -11.34,-19.61l-14,17.43c-25.15,31.27 -50.09,25.73 -61.07,36z" class="cls-4" id="svg_43"/>
    <path stroke="null" d="m121.67576,104.8918c-0.44,-0.22 -0.88,-0.4 -1.32,-0.58c-0.94,0.84 -1.5,1.34 -0.06,0c-4.05,-1.61 -7.94,-1.7 -11,0.09s-4.87,5 -5.55,9.16l10.25,-3.98l5.45,0l4.42,3.67l0,2.18a8.51,8.51 0 0 1 0.54,4.15c-0.18,2.16 -0.29,4 -0.36,5.63l0.12,7.92l10.93,8.94l0.72,1.54c2.25,2.33 3.64,4.58 2.59,6l-3,4l-6,1.84a11.51,11.51 0 0 0 8.92,-0.8c7.36,-4.25 7.77,-17.54 1.29,-30.57a13,13 0 0 0 -3.7,-2.21c-4.94,-2.29 -12.19,-13.65 -14.24,-16.98z" class="cls-5" id="svg_42"/>
    <path stroke="null" d="m120.40576,104.3118l-0.06,0c-1.49,1.34 -0.94,0.84 0.06,0z" class="cls-5" id="svg_41"/>
    <path stroke="null" d="m121.67576,104.8918c2.05,3.33 9.3,14.73 14.19,17a13,13 0 0 1 3.7,2.21c-0.47,-0.94 -1,-1.88 -1.51,-2.81c-4.5,-7.82 -10.55,-13.62 -16.38,-16.4z" class="cls-5" id="svg_40"/>
    <path stroke="null" d="m25.48576,165.0718l82.68,-26.41l-0.28,-1.25l-82.4,27.66z" class="cls-4" id="svg_39"/>
    <path stroke="null" d="m-35.59424,176.5818l0,0.09l1,-0.46l-1,0.37z" class="cls-4" id="svg_38"/>
    <path stroke="null" d="m111.40576,151.3718l0.05,0.21l-4,-2c-2.18,-1.09 -41.91,17.64 -77.71,34.95a111.907,111.907 0 0 0 8.17,8.13l55.49,-26.08l36,-11.13a20.79,20.79 0 0 1 -4.38,-1.74l-13.62,-2.34z" class="cls-4" id="svg_37"/>
    <path stroke="null" d="m124.40576,119.5818a8.51,8.51 0 0 0 -0.51,-4.15l0.15,9.78c0.07,-1.63 0.18,-3.47 0.36,-5.63z" class="cls-4" id="svg_36"/>
    <path stroke="null" d="m138.40576,149.5818c1.05,-1.39 -0.34,-3.64 -2.59,-6l2.59,5.55l-3,4.31l-4.13,1.34l-6.25,-1.07a20.787,20.787 0 0 0 4.38,1.74l6,-1.87l3,-4z" class="cls-4" id="svg_35"/>
    <path stroke="null" d="m17.17576,167.7218l0.07,0.12l8.24,-2.77l-8.31,2.65z" class="cls-1" id="svg_34"/>
    <path stroke="null" d="m97.40576,123.5818c2.4,-1.92 4.39,-3.43 6,-4.63a25.052,25.052 0 0 1 0.26,-5.41l-0.9,0.35l-92,41.71c0.47,1.06 0.95,2.1 1.45,3.13c35.8,-13.51 79.4,-30.52 85.19,-35.15z" class="cls-1" id="svg_33"/>
    <path stroke="null" d="m108.16576,138.6618l2.77,12.64l0.42,0.07l-2.95,-12.79l-0.24,0.08z" class="cls-1" id="svg_32"/>
    <path stroke="null" d="m103.40576,118.9518c5.22,-3.78 7,-4.37 7,-4.37s10.89,-5.08 13.49,0.85l0,-2.18l-4.49,-3.67l-5.45,0l-10.25,4a25.048,25.048 0 0 0 -0.3,5.37z" class="cls-1" id="svg_31"/>
    <path stroke="null" d="m124.40576,134.5818s7.21,4.67 11.41,9l-0.72,-1.54l-10.93,-8.94l-0.12,-7.92c-0.31,7.4 0.36,9.4 0.36,9.4z" class="cls-1" id="svg_30"/>
    <path stroke="null" d="m109.47576,137.7718a43.319,43.319 0 0 1 -6,-18.82c-1.65,1.2 -3.64,2.71 -6,4.63c-5.79,4.63 -49.39,21.64 -85.11,35.15q2.24,4.62 4.88,9l8.31,-2.65l82.4,-27.66l0.28,1.25l0.17,-0.09l3,12.79l13.62,2.34c-5.62,-2.92 -11.27,-8.53 -15.55,-15.94z" class="cls-1" id="svg_29"/>
    <path stroke="null" d="m110.40576,114.5818s-1.74,0.59 -7,4.37a43.32,43.32 0 0 0 6,18.82c4.28,7.41 9.95,13 15.5,15.94l6.25,1.07l4.13,-1.34l3.05,-4.28l-2.52,-5.58c-4.2,-4.36 -11.41,-9 -11.41,-9s-0.67,-2 -0.36,-9.37l-0.15,-9.78c-2.6,-5.93 -13.49,-0.85 -13.49,-0.85z" class="cls-1" id="svg_28"/>
   </g>
  </g>
 </g>
</svg>