<svg xmlns="http://www.w3.org/2000/svg" width="44.325" height="36" viewBox="0 0 44.325 36">
  <path id="Icon_awesome-twitter" data-name="Icon awesome-twitter" d="M39.769,12.353c.028.394.028.788.028,1.181,0,12.009-9.141,25.847-25.847,25.847A25.672,25.672,0,0,1,0,35.3a18.794,18.794,0,0,0,2.194.112,18.193,18.193,0,0,0,11.278-3.881,9.1,9.1,0,0,1-8.494-6.3,11.456,11.456,0,0,0,1.716.141,9.608,9.608,0,0,0,2.391-.309A9.086,9.086,0,0,1,1.8,16.15v-.112A9.149,9.149,0,0,0,5.906,17.19,9.1,9.1,0,0,1,3.094,5.04a25.822,25.822,0,0,0,18.731,9.506,10.255,10.255,0,0,1-.225-2.081A9.093,9.093,0,0,1,37.322,6.25a17.886,17.886,0,0,0,5.766-2.194,9.06,9.06,0,0,1-3.994,5.006,18.212,18.212,0,0,0,5.231-1.406,19.528,19.528,0,0,1-4.556,4.7Z" transform="translate(0 -3.381)" fill="#636363"/>
</svg>
