<svg xmlns="http://www.w3.org/2000/svg" width="216" height="216" viewBox="0 0 216 216">
  <defs>
    <style>
      .cls-1 {
        fill: #77b9f3;
      }

      .cls-2 {
        fill: #dbefa5;
      }

      .cls-3 {
        fill: #84efd3;
      }

      .cls-4 {
        fill: #fff;
      }
    </style>
  </defs>
  <g id="vitaminsuplemen" transform="translate(-317 -1367)">
    <circle id="Ellipse_22" data-name="Ellipse 22" class="cls-1" cx="108" cy="108" r="108" transform="translate(317 1367)"/>
    <g id="vitamin-obat" transform="translate(371 1409)">
      <rect id="Rectangle_84" data-name="Rectangle 84" class="cls-2" width="25" height="50" transform="translate(14 4)"/>
      <rect id="Rectangle_85" data-name="Rectangle 85" class="cls-3" width="31" height="9" rx="4.5" transform="translate(11)"/>
      <rect id="Rectangle_86" data-name="Rectangle 86" class="cls-4" width="30" height="9" transform="translate(12 70)"/>
      <rect id="Rectangle_87" data-name="Rectangle 87" class="cls-3" width="53" height="83" transform="translate(0 28)"/>
      <rect id="Rectangle_88" data-name="Rectangle 88" class="cls-4" width="53" height="9" transform="translate(0 67)"/>
      <path id="Path_47" data-name="Path 47" class="cls-3" d="M495.171,522.56,465.08,560.015a24.434,24.434,0,0,0,30.091-37.446Z" transform="translate(-384.29 -451.51)"/>
      <path id="Path_48" data-name="Path 48" class="cls-3" d="M458.435,502a24.434,24.434,0,0,0-18.914,39.9l29.946-37.272A24.311,24.311,0,0,0,458.435,502Z" transform="translate(-366.082 -439.465)"/>
      <path id="Path_49" data-name="Path 49" class="cls-4" d="M477.276,508.36,447.33,545.633a24.585,24.585,0,0,0,7.351,6.063l30.091-37.446a24.5,24.5,0,0,0-7.5-5.889Z" transform="translate(-373.891 -443.191)"/>
    </g>
  </g>
</svg>
