<svg xmlns="http://www.w3.org/2000/svg" width="51.2" height="36" viewBox="0 0 51.2 36">
  <path id="Icon_awesome-youtube" data-name="Icon awesome-youtube" d="M51.18,10.133a6.433,6.433,0,0,0-4.527-4.556C42.661,4.5,26.65,4.5,26.65,4.5s-16.011,0-20,1.077A6.433,6.433,0,0,0,2.12,10.133c-1.07,4.019-1.07,12.4-1.07,12.4s0,8.385,1.07,12.4a6.338,6.338,0,0,0,4.527,4.483c3.993,1.077,20,1.077,20,1.077s16.011,0,20-1.077A6.338,6.338,0,0,0,51.18,34.94c1.07-4.019,1.07-12.4,1.07-12.4s0-8.385-1.07-12.4ZM21.414,30.149V14.924L34.8,22.537,21.414,30.149Z" transform="translate(-1.05 -4.5)" fill="#636363"/>
</svg>
